<mxfile host="app.diagrams.net" modified="2023-12-05T12:32:57.132Z" agent="Mozilla/5.0 (Windows NT 10.0; Win64; x64) AppleWebKit/537.36 (KHTML, like Gecko) Chrome/121.0.0.0 Safari/537.36" version="22.1.5" etag="NOFIw94ZT2y-uucI2ims" type="github">
  <diagram name="第 1 页" id="k4xjtzq-YrxGuK2f0TMu">
    <mxGraphModel>
      <root>
        <mxCell id="0" />
        <mxCell id="1" parent="0" />
      </root>
    </mxGraphModel>
  </diagram>
</mxfile>
